<?xml version="1.0" encoding="UTF-8" standalone="no"?>
<svg

	
   version="1.1"
   id="svg824"
   xml:space="preserve"
   sodipodi:docname="kutsMockupBlack-cropped.svg"
   inkscape:version="1.1.2 (b8e25be833, 2022-02-05)"
   viewBox="63.74 129.65 157.98 110.12"
   xmlns:inkscape="http://www.inkscape.org/namespaces/inkscape"
   xmlns:sodipodi="http://sodipodi.sourceforge.net/DTD/sodipodi-0.dtd"
   xmlns="http://www.w3.org/2000/svg"
   xmlns:svg="http://www.w3.org/2000/svg"><defs
     id="defs828"><linearGradient
       x1="0"
       y1="0"
       x2="1"
       y2="0"
       gradientUnits="userSpaceOnUse"
       gradientTransform="matrix(34.74622,0,0,-34.74622,86.593307,129.11436)"
       spreadMethod="pad"
       id="linearGradient850"><stop
         style="stop-opacity:1;stop-color:#000000"
         offset="0"
         id="stop844" /><stop
         style="stop-opacity:1;stop-color:#000000"
         offset="0.79908746"
         id="stop846" /><stop
         style="stop-opacity:1;stop-color:#4f5052"
         offset="1"
         id="stop848" /></linearGradient><linearGradient
       x1="0"
       y1="0"
       x2="1"
       y2="0"
       gradientUnits="userSpaceOnUse"
       gradientTransform="matrix(49.943111,0,0,-49.943111,74.654335,152.31578)"
       spreadMethod="pad"
       id="linearGradient874"><stop
         style="stop-opacity:1;stop-color:#555658"
         offset="0"
         id="stop866" /><stop
         style="stop-opacity:1;stop-color:#262223"
         offset="0.11220756"
         id="stop868" /><stop
         style="stop-opacity:1;stop-color:#262223"
         offset="0.238321"
         id="stop870" /><stop
         style="stop-opacity:1;stop-color:#262223"
         offset="1"
         id="stop872" /></linearGradient><linearGradient
       x1="0"
       y1="0"
       x2="1"
       y2="0"
       gradientUnits="userSpaceOnUse"
       gradientTransform="matrix(42.574108,0,0,-42.574108,70.323585,107.23695)"
       spreadMethod="pad"
       id="linearGradient896"><stop
         style="stop-opacity:1;stop-color:#3f3f40"
         offset="0"
         id="stop890" /><stop
         style="stop-opacity:1;stop-color:#262223"
         offset="0.51912724"
         id="stop892" /><stop
         style="stop-opacity:1;stop-color:#262223"
         offset="1"
         id="stop894" /></linearGradient><linearGradient
       x1="0"
       y1="0"
       x2="1"
       y2="0"
       gradientUnits="userSpaceOnUse"
       gradientTransform="matrix(-21.246069,0,0,21.246069,71.327888,150.44527)"
       spreadMethod="pad"
       id="linearGradient920"><stop
         style="stop-opacity:1;stop-color:#515254"
         offset="0"
         id="stop912" /><stop
         style="stop-opacity:1;stop-color:#373537"
         offset="0.7075919"
         id="stop914" /><stop
         style="stop-opacity:1;stop-color:#373537"
         offset="0.904168"
         id="stop916" /><stop
         style="stop-opacity:1;stop-color:#373537"
         offset="1"
         id="stop918" /></linearGradient><linearGradient
       x1="0"
       y1="0"
       x2="1"
       y2="0"
       gradientUnits="userSpaceOnUse"
       gradientTransform="matrix(-19.275118,0,0,19.275118,67.077339,107.88517)"
       spreadMethod="pad"
       id="linearGradient944"><stop
         style="stop-opacity:1;stop-color:#3f3f40"
         offset="0"
         id="stop936" /><stop
         style="stop-opacity:1;stop-color:#3f3f40"
         offset="0.45973852"
         id="stop938" /><stop
         style="stop-opacity:1;stop-color:#282526"
         offset="0.954315"
         id="stop940" /><stop
         style="stop-opacity:1;stop-color:#282526"
         offset="1"
         id="stop942" /></linearGradient><radialGradient
       fx="0"
       fy="0"
       cx="0"
       cy="0"
       r="1"
       gradientUnits="userSpaceOnUse"
       gradientTransform="matrix(1.9214343,0,0,-1.9214343,70.849236,129.31183)"
       spreadMethod="pad"
       id="radialGradient970"><stop
         style="stop-opacity:1;stop-color:#6e7072"
         offset="0"
         id="stop960" /><stop
         style="stop-opacity:1;stop-color:#6e7072"
         offset="0.00345019"
         id="stop962" /><stop
         style="stop-opacity:1;stop-color:#57585a"
         offset="0.86949086"
         id="stop964" /><stop
         style="stop-opacity:1;stop-color:#57585a"
         offset="0.967977"
         id="stop966" /><stop
         style="stop-opacity:1;stop-color:#57585a"
         offset="1"
         id="stop968" /></radialGradient><linearGradient
       x1="0"
       y1="0"
       x2="1"
       y2="0"
       gradientUnits="userSpaceOnUse"
       gradientTransform="matrix(15.149753,-26.240141,-26.240141,-15.149753,127.68574,148.6996)"
       spreadMethod="pad"
       id="linearGradient992"><stop
         style="stop-opacity:1;stop-color:#6b6c6f"
         offset="0"
         id="stop986" /><stop
         style="stop-opacity:1;stop-color:#000000"
         offset="0.53361508"
         id="stop988" /><stop
         style="stop-opacity:1;stop-color:#000000"
         offset="1"
         id="stop990" /></linearGradient><linearGradient
       x1="0"
       y1="0"
       x2="1"
       y2="0"
       gradientUnits="userSpaceOnUse"
       gradientTransform="matrix(52.002445,0,0,-52.002445,114.2551,118.0928)"
       spreadMethod="pad"
       id="linearGradient1014"><stop
         style="stop-opacity:1;stop-color:#343334"
         offset="0"
         id="stop1008" /><stop
         style="stop-opacity:1;stop-color:#343334"
         offset="0.42607238"
         id="stop1010" /><stop
         style="stop-opacity:1;stop-color:#000000"
         offset="1"
         id="stop1012" /></linearGradient></defs><sodipodi:namedview
     id="namedview826"
     pagecolor="#ffffff"
     bordercolor="#666666"
     borderopacity="1.0"
     inkscape:pageshadow="2"
     inkscape:pageopacity="0.0"
     inkscape:pagecheckerboard="0"
     showgrid="false"
     inkscape:zoom="2.0680019"
     inkscape:cx="139.50664"
     inkscape:cy="180.8509"
     inkscape:window-width="1680"
     inkscape:window-height="997"
     inkscape:window-x="-8"
     inkscape:window-y="-8"
     inkscape:window-maximized="1"
     inkscape:current-layer="g830" /><g
     id="g830"
     inkscape:groupmode="layer"
     inkscape:label="logomockup"
     transform="matrix(1.3333333,0,0,-1.3333333,0,360.73467)"><g
       id="g832"
       style="fill:#ffffff;fill-opacity:1;stroke:#000000;stroke-opacity:0"><g
         id="g834"
         style="fill:#ffffff;fill-opacity:1;stroke:#000000;stroke-opacity:0"><g
           id="g840"
           style="fill:#ffffff;fill-opacity:1;stroke:#000000;stroke-opacity:0"><g
             id="g842"
             style="fill:#ffffff;fill-opacity:1;stroke:#000000;stroke-opacity:0"><path
               d="m 94.769,139.758 c -2.052,-1.27 -4.895,-3.118 -4.987,-3.189 v 0 c -0.091,-0.071 -2.61,-1.564 -3.188,-1.736 v 0 c 0,0 1.675,-0.991 3.351,-0.519 v 0 c 1.676,0.473 4.248,1.435 5.27,1.124 v 0 c 1,-0.305 1.768,-0.59 1.935,-1.672 v 0 c 0.168,-1.082 -0.532,-3.732 -1.218,-5.012 v 0 c -0.686,-1.28 -2.788,-5.089 -3.032,-6.277 v 0 c -0.243,-1.188 -1.158,-4.22 1.6,-5.667 v 0 c 2.758,-1.447 8.393,-0.655 8.393,-0.655 v 0 c 0,0 3.642,0.351 6.932,2.59 v 0 c -0.533,-2.133 -0.609,-2.322 -0.609,-2.322 v 0 h 5.652 l 6.472,23.787 h -2.641 l -7.8,-1.082 -0.388,-1.462 c 0,0 0.716,-0.031 1.309,-0.145 v 0 c 0.595,-0.114 1.92,-0.312 2.065,-1.637 v 0 c 0.145,-1.326 -0.282,-3.093 -0.533,-3.958 v 0 c -0.252,-0.864 -2.485,-9.403 -2.485,-9.403 v 0 c 0,0 -2.23,-1.589 -2.768,-1.879 v 0 c -0.538,-0.289 -3.986,-2.295 -6.211,-2.189 v 0 c -0.929,0.046 -1.843,0.534 -2.3,1.357 v 0 c -0.457,0.822 -0.061,2.62 0.03,2.909 v 0 c 0.092,0.29 0.655,2.743 0.838,4.037 v 0 c 0.183,1.295 2.239,9.232 2.743,10.405 v 0 c 0.503,1.173 1.205,3.862 1.205,3.862 v 0 c 0,0 -2.615,1.262 -3.332,1.265 v 0 c -0.717,0.002 -4.252,-1.263 -6.303,-2.532"
               style="fill:#ffffff;stroke:#000000;fill-opacity:1;stroke-opacity:0"
               id="path852" /></g></g></g></g><g
       id="g854"
       style="fill:#ffffff;fill-opacity:1;stroke:#000000;stroke-opacity:0"><g
         id="g856"
         style="fill:#ffffff;fill-opacity:1;stroke:#000000;stroke-opacity:0"><g
           id="g862"
           style="fill:#ffffff;fill-opacity:1;stroke:#000000;stroke-opacity:0"><g
             id="g864"
             style="fill:#ffffff;fill-opacity:1;stroke:#000000;stroke-opacity:0"><path
               d="m 112.898,173.296 c -6.349,-0.62 -21.05,-10.231 -24.863,-14.3 v 0 c -4.657,-4.972 -8.015,-9.41 -9.749,-13.65 v 0 c -2.103,-5.141 -3.986,-7.516 -3.575,-9.587 v 0 c 0.504,-2.541 0.696,-3.303 1.604,-4.445 v 0 c 1.171,1.482 3.021,2.877 5.708,4.932 v 0 c 5.242,4.009 6.307,5.504 9.588,7.801 v 0 c 6.5,4.549 8.747,6.779 16.574,13.324 v 0 c 3.469,2.902 14.952,9.365 16.413,11.05 v 0 c -1.78,0.79 -7.513,4.896 -11.252,4.896 v 0 c -0.153,0 -0.302,-0.007 -0.448,-0.021"
               style="fill:#ffffff;stroke:#000000;fill-opacity:1;stroke-opacity:0"
               id="path876" /></g></g></g></g><g
       id="g878"
       style="fill:#ffffff;fill-opacity:1;stroke:#000000;stroke-opacity:0"><g
         id="g880"
         style="fill:#ffffff;fill-opacity:1;stroke:#000000;stroke-opacity:0"><g
           id="g886"
           style="fill:#ffffff;fill-opacity:1;stroke:#000000;stroke-opacity:0"><g
             id="g888"
             style="fill:#ffffff;fill-opacity:1;stroke:#000000;stroke-opacity:0"><path
               d="m 70.323,122.434 c 2.631,-5.774 3.391,-12.3 5.688,-14.888 v 0 c 2.915,-3.286 6.987,-8.349 16.101,-12.086 v 0 c 8.743,-3.584 18.024,-5.363 20.786,-3.9 v 0 c -0.708,0.948 -7.706,5.357 -8.937,6.825 v 0 c -2.525,3.009 -8.506,5.219 -16.576,12.187 v 0 c -8.874,7.664 -10.243,10.554 -14.299,12.675 v 0 c -0.244,0.128 -0.483,0.18 -0.712,0.18 v 0 c -0.983,0 -1.779,-0.961 -2.051,-0.993"
               style="fill:#ffffff;stroke:#000000;fill-opacity:1;stroke-opacity:0"
               id="path898" /></g></g></g></g><g
       id="g900"
       style="fill:#ffffff;fill-opacity:1;stroke:#000000;stroke-opacity:0"><g
         id="g902"
         style="fill:#ffffff;fill-opacity:1;stroke:#000000;stroke-opacity:0"><g
           id="g908"
           style="fill:#ffffff;fill-opacity:1;stroke:#000000;stroke-opacity:0"><g
             id="g910"
             style="fill:#ffffff;fill-opacity:1;stroke:#000000;stroke-opacity:0"><path
               d="m 52.477,165.844 c -0.923,-0.36 -1.442,-1.092 -1.6,-1.322 v 0 c -2.165,-3.139 0.551,-8.958 2.668,-13.498 v 0 c 0.362,-0.781 0.878,-1.799 1.594,-2.95 v 0 c 0.836,-1.352 1.332,-2.154 2.182,-3.03 v 0 c 0.9,-0.934 2.117,-1.691 4.55,-3.204 v 0 c 0.858,-0.534 1.503,-0.914 1.576,-0.956 v 0 c 1.601,-0.945 4.063,-2.657 7.881,-6.046 v 0 c -1.454,2.497 -2.908,4.997 -4.363,7.493 v 0 c -0.424,1.388 -3.549,11.503 -6.478,18.076 v 0 c -0.352,0.792 -1.297,2.846 -3.389,4.297 v 0 c -0.506,0.354 -1.94,1.349 -3.473,1.349 v 0 c -0.381,0 -0.768,-0.061 -1.148,-0.209"
               style="fill:#ffffff;stroke:#000000;fill-opacity:1;stroke-opacity:0"
               id="path922" /></g></g></g></g><g
       id="g924"
       style="fill:#ffffff;fill-opacity:1;stroke:#000000;stroke-opacity:0"><g
         id="g926"
         style="fill:#ffffff;fill-opacity:1;stroke:#000000;stroke-opacity:0"><g
           id="g932"
           style="fill:#ffffff;fill-opacity:1;stroke:#000000;stroke-opacity:0"><g
             id="g934"
             style="fill:#ffffff;fill-opacity:1;stroke:#000000;stroke-opacity:0"><path
               d="m 64.919,122.452 c -2.427,-3.099 -4.289,-6.168 -5.732,-8.989 v 0 c -4.549,-8.888 -6.295,-10.623 -5.601,-13.128 v 0 c 0.213,-0.767 0.515,-1.233 0.366,-2.021 v 0 C 53.396,95.367 47.865,94.91 47.803,93.032 v 0 c -0.017,-0.524 0.386,-1.302 2.493,-2.305 v 0 c 0.788,0.711 1.824,1.764 2.825,3.201 v 0 c 1.757,2.521 11.279,2.889 11.679,4.293 v 0 c 1.266,4.471 1.043,8.537 0.649,11.215 v 0 c -0.284,1.766 -0.345,1.703 -1.107,4.212 v 0 c -0.309,1.015 -0.309,1.015 -0.257,1.255 v 0 c 0.207,0.928 0.583,2.407 1.643,5.869 v 0 c 0.324,1.057 0.781,2.521 1.349,4.271 v 0 c -0.722,-0.812 -1.44,-1.674 -2.158,-2.591"
               style="fill:#ffffff;stroke:#000000;fill-opacity:1;stroke-opacity:0"
               id="path946" /></g></g></g></g><g
       id="g948"
       style="fill:#ffffff;fill-opacity:1;stroke:#000000;stroke-opacity:0"><g
         id="g950"
         style="fill:#ffffff;fill-opacity:1;stroke:#000000;stroke-opacity:0"><g
           id="g956"
           style="fill:#ffffff;fill-opacity:1;stroke:#000000;stroke-opacity:0"><g
             id="g958"
             style="fill:#ffffff;fill-opacity:1;stroke:#000000;stroke-opacity:0"><path
               d="m 70.89,131.266 c -1.334,-0.519 -1.877,-1.506 -1.877,-2.599 v 0 c 0,-1.093 0.785,-1.358 1.877,-1.358 v 0 c 1.093,0 1.796,0.058 1.796,1.151 v 0 c 0,1.001 -0.652,2.855 -1.545,2.855 v 0 c -0.082,0 -0.165,-0.016 -0.251,-0.049"
               style="fill:#ffffff;stroke:#000000;fill-opacity:1;stroke-opacity:0"
               id="path972" /></g></g></g></g><g
       id="g974"
       style="fill:#ffffff;fill-opacity:1;stroke:#000000;stroke-opacity:0"><g
         id="g976"
         style="fill:#ffffff;fill-opacity:1;stroke:#000000;stroke-opacity:0"><g
           id="g982"
           style="fill:#ffffff;fill-opacity:1;stroke:#000000;stroke-opacity:0"><g
             id="g984"
             style="fill:#ffffff;fill-opacity:1;stroke:#000000;stroke-opacity:0"><path
               d="m 124.598,146.506 c 0,0 -1.92,-8.891 -9.151,-8.973 v 0 c -0.406,-1.665 -1.057,-3.168 3.574,-1.705 v 0 c -0.365,-1.585 -4.793,-16.819 -4.752,-19.175 v 0 c 0.243,-1.909 8.734,8.694 8.734,8.694 v 0 l 3.168,7.758 c 2.869,0.841 5.939,1.609 9.202,2.255 v 0 c 10.191,2.02 19.424,2.292 27.117,1.849 v 0 c -2.268,-0.939 -2.7,-1.408 -2.646,-1.663 v 0 c 0.065,-0.307 0.856,-0.406 1.366,-0.47 v 0 c 0.276,-0.035 1.113,0.068 2.254,0.183 v 0 c 0.754,0.076 0.754,0.076 1.491,0.183 v 0 c 0.639,0.156 0.901,0.26 1.129,0.487 v 0 c 0.345,0.341 0.162,1.043 0.104,1.267 v 0 c 0,0.001 -0.169,0.65 -0.672,1.181 v 0 c -0.752,0.795 -3.469,1.75 -7.211,2.366 v 0 c 0,0 -30.549,-0.671 -30.224,1.614 v 0 c 0.325,2.286 0.65,4.149 0.65,4.149 v 0 c 0,0 -1.538,0.924 -2.763,0.924 v 0 c -0.612,0 -1.146,-0.231 -1.37,-0.924"
               style="fill:#ffffff;stroke:#000000;fill-opacity:1;stroke-opacity:0"
               id="path994" /></g></g></g></g><g
       id="g996"
       style="fill:#ffffff;fill-opacity:1;stroke:#000000;stroke-opacity:0"><g
         id="g998"
         style="fill:#ffffff;fill-opacity:1;stroke:#000000;stroke-opacity:0"><g
           id="g1004"
           style="fill:#ffffff;fill-opacity:1;stroke:#000000;stroke-opacity:0"><g
             id="g1006"
             style="fill:#ffffff;fill-opacity:1;stroke:#000000;stroke-opacity:0"><path
               d="m 159.93,136.118 c -3.717,-0.159 -9.963,-0.007 -12.583,-0.341 v 0 c -0.087,-0.011 -1.981,-0.289 -3.017,-0.671 v 0 c -2.371,-0.872 -6.359,-1.86 -21.102,-9.21 v 0 c -8.958,-9.244 -9.041,-9.404 -8.961,-10.381 v 0 c 0.083,-0.973 1.486,-3.229 3.737,-2.926 v 0 c 2.439,0.063 12.068,0.995 12.068,0.995 v 0 c 0,0 1.212,0.077 1.787,0.144 v 0 c 0.645,0.075 1.498,0.144 1.787,0.183 v 0 c 2.841,0.372 12.645,1.572 15.741,-3.696 v 0 c -0.181,-1.949 0.306,-1.343 -2.741,-4.083 v 0 c -4.449,-1.402 -8.288,-3.048 -14.321,-2.501 v 0 c -7.981,1.953 -6.276,1.779 -10.866,3.606 v 0 c -3.087,0.975 -5.525,-1.991 -6.621,-3.714 v 0 c 1.765,-1.962 8.361,-4.331 11.759,-4.034 v 0 c 2.783,-0.025 11.214,2.072 20.597,2.072 v 0 c 9.383,-0.244 15.161,0.731 16.723,2.681 v 0 c 1.192,1.035 2.535,3.082 -3.317,9.342 v 0 c -5.484,5.345 -12.127,8.514 -15.844,8.632 v 0 c -3.717,0.123 -6.663,0.063 -7.758,0.023 v 0 c -0.796,0 -5.464,-0.936 -5.342,0.344 v 0 c 0.059,0.913 0.122,4.146 10.482,8.347 v 0 c 1.398,0.384 4.638,0.518 8.714,-0.181 v 0 c 2.131,-0.365 3.472,-0.893 5.747,-0.406 v 0 c 3.494,0.971 8.491,4.293 9.485,5.586 v 0 c 0.462,0.6 -0.05,0.793 -0.962,0.792 v 0 c -1.504,0 -4.092,-0.522 -5.192,-0.603"
               style="fill:#ffffff;stroke:#000000;fill-opacity:1;stroke-opacity:0"
               id="path1016" /></g></g></g></g></g></svg>
